<svg width="14" height="11" viewBox="0 0 14 11" fill="none" xmlns="http://www.w3.org/2000/svg">
<path d="M6.20679 10.6947C6.01926 10.8822 5.76495 10.9875 5.49979 10.9875C5.23462 10.9875 4.98031 10.8822 4.79279 10.6947L0.292787 6.19471C0.105316 6.00718 0 5.75287 0 5.48771C0 5.22254 0.105316 4.96824 0.292787 4.78071L4.79279 0.280709C4.98139 0.0985512 5.23399 -0.00224313 5.49619 3.52859e-05C5.75838 0.00231371 6.0092 0.107482 6.1946 0.292891C6.38001 0.478299 6.48518 0.729111 6.48746 0.991308C6.48974 1.2535 6.38894 1.50611 6.20679 1.69471L3.49979 4.48771L12.9998 4.48771C13.265 4.48771 13.5194 4.59307 13.7069 4.7806C13.8944 4.96814 13.9998 5.22249 13.9998 5.48771C13.9998 5.75293 13.8944 6.00728 13.7069 6.19482C13.5194 6.38235 13.265 6.48771 12.9998 6.48771L3.49979 6.48771L6.20679 9.28071C6.39426 9.46824 6.49957 9.72254 6.49957 9.98771C6.49957 10.2529 6.39426 10.5072 6.20679 10.6947Z" fill="black"/>
</svg>
