<svg width="24" height="21" viewBox="0 0 24 21" fill="none" xmlns="http://www.w3.org/2000/svg">
<path d="M17.1724 0C15.0941 0 13.2497 0.820345 12 2.23035C10.7503 0.820345 8.90586 0 6.82759 0C5.01747 0.0021901 3.28212 0.722226 2.00217 2.00217C0.722226 3.28212 0.0021901 5.01747 0 6.82759C0 14.311 10.9459 20.2903 11.4114 20.5417C11.5923 20.6392 11.7945 20.6901 12 20.6901C12.2055 20.6901 12.4077 20.6392 12.5886 20.5417C13.0541 20.2903 24 14.311 24 6.82759C23.9978 5.01747 23.2778 3.28212 21.9978 2.00217C20.7179 0.722226 18.9825 0.0021901 17.1724 0ZM16.6045 14.7269C15.1637 15.9495 13.6236 17.0498 12 18.0166C10.3764 17.0498 8.83627 15.9495 7.39552 14.7269C5.15379 12.8038 2.48276 9.87103 2.48276 6.82759C2.48276 5.67527 2.94052 4.57014 3.75533 3.75533C4.57014 2.94052 5.67527 2.48276 6.82759 2.48276C8.66897 2.48276 10.2103 3.45517 10.8507 5.02138C10.9439 5.2497 11.103 5.44508 11.3077 5.58262C11.5124 5.72015 11.7534 5.7936 12 5.7936C12.2466 5.7936 12.4876 5.72015 12.6923 5.58262C12.897 5.44508 13.0561 5.2497 13.1493 5.02138C13.7897 3.45517 15.331 2.48276 17.1724 2.48276C18.3247 2.48276 19.4299 2.94052 20.2447 3.75533C21.0595 4.57014 21.5172 5.67527 21.5172 6.82759C21.5172 9.87103 18.8462 12.8038 16.6045 14.7269Z" fill="white"/>
</svg>
