<svg width="93" height="46" viewBox="0 0 93 46" fill="none" xmlns="http://www.w3.org/2000/svg">
<rect width="93" height="46" fill="#EF3E36"/>
<path d="M21.2667 33V14.99H25.0855V29.8464H32.3905V33H21.2667ZM35.5318 33V14.99H39.3506V33H35.5318ZM58.0136 14.99L51.8911 33H47.7274L41.6173 14.99H45.473L48.8607 25.7073C48.9182 25.888 49.0126 26.2288 49.144 26.7297C49.2754 27.2225 49.4068 27.7481 49.5382 28.3065C49.6779 28.8568 49.7723 29.3126 49.8216 29.6739C49.8708 29.3126 49.9571 28.8568 50.0803 28.3065C50.2117 27.7563 50.339 27.2348 50.4621 26.7421C50.5935 26.2411 50.688 25.8962 50.7455 25.7073L54.1578 14.99H58.0136ZM70.6649 33H60.2925V14.99H70.6649V18.1189H64.1113V22.0732H70.2091V25.2022H64.1113V29.8464H70.6649V33Z" fill="white"/>
</svg>
